<svg xmlns="http://www.w3.org/2000/svg" width="141" height="29" viewBox="0 0 141 29" fill="none">
<path d="M48.6431 28.6465V2.53474H60.3906C65.0247 2.53474 68.4781 5.51137 68.4781 9.60791C68.4781 12.9382 66.8252 15.237 64.1097 16.2095C66.9728 16.2095 68.0944 17.4473 68.0944 19.8935V28.6171H63.6079V21.0429C63.6079 19.0978 63.0471 18.5378 61.099 18.5378H53.1296V28.6465H48.6431ZM53.1296 14.5886H59.2985C62.3977 14.5886 64.0506 12.9087 64.0506 10.4036C64.0506 7.83962 62.3977 6.5134 59.2985 6.5134H53.1296V14.5886Z" fill="white"/>
<path d="M69.9243 19.3041C69.9243 13.3508 73.6139 9.60796 78.6907 9.60796C84.0037 9.60796 86.9848 13.3803 86.9848 18.5084C86.9848 19.1567 86.9553 19.7756 86.8963 20.424H74.0861C74.3223 23.6954 76.6245 25.4931 78.7497 25.4931H79.0449C80.8749 25.4931 82.2622 24.4616 82.6164 22.8702H86.8668C86.0698 26.5836 83.0296 28.9708 78.7202 28.9708C74.1157 29.0002 69.9243 25.611 69.9243 19.3041ZM82.764 17.1232C82.6164 14.4413 80.8159 13.1445 78.7792 13.1445H78.4841C76.477 13.1445 74.5584 14.4118 74.2337 17.1232H82.764Z" fill="white"/>
<path d="M88.0771 23.5183C88.0771 19.3923 91.4715 17.7714 94.8954 17.5062L99.7952 17.0936V16.5631C99.7952 14.4706 98.4965 13.0854 96.4008 13.0854H96.1056C94.2461 13.0854 92.8883 14.1759 92.7408 15.5905H88.4609C88.756 12.1129 91.8257 9.57831 96.2532 9.57831C101.064 9.57831 103.987 12.3486 103.987 16.4452V24.4909C103.987 25.6108 103.987 27.2907 104.164 28.5875H100.12C99.9723 27.8801 99.9428 26.5834 99.9428 26.0234C98.9687 27.6738 96.8731 28.9706 94.1871 28.9706C90.7631 29.0001 88.0771 26.7602 88.0771 23.5183ZM95.2201 25.4929C97.4339 25.4929 99.7657 23.7541 99.7657 21.3964V20.2765L95.4267 20.6891C93.8329 20.8364 92.298 21.6616 92.298 23.2531C92.298 24.5499 93.4196 25.4929 94.925 25.4929H95.2201Z" fill="white"/>
<path d="M105.61 19.3041C105.61 13.5571 109.181 9.60796 114.583 9.60796C119.187 9.60796 122.287 11.9657 122.641 16.3569H118.361C118.066 14.4118 116.797 13.1151 114.73 13.1151H114.435C111.307 13.1151 109.919 15.9738 109.919 19.3041C109.919 22.6344 111.307 25.4931 114.435 25.4931H114.73C116.797 25.4931 118.066 24.1964 118.361 22.2512H122.641C122.257 26.6425 119.158 29.0002 114.583 29.0002C109.211 29.0002 105.61 25.051 105.61 19.3041Z" fill="white"/>
<path d="M124.294 28.6466V2.53482H128.574V12.673C129.695 10.8753 131.703 9.60799 134.359 9.60799C138.757 9.60799 140.971 12.4373 140.971 16.4749V28.6171H136.691V17.1232C136.691 14.6182 135.569 13.1446 133.355 13.1446H133.06C130.669 13.1446 128.574 15.2371 128.574 18.2432V28.6466H124.294Z" fill="white"/>
<path d="M19.4513 0L29.1032 9.60772L9.65187 28.9705L0 19.3628L19.4513 0Z" fill="white"/>
<path d="M29.9296 10.9043L30.1658 10.6685L39.4044 19.8636L30.2248 28.9998L29.9296 28.7051C25.0004 23.8128 25.0004 15.8555 29.9001 10.9338C29.9001 10.9338 29.9001 10.9338 29.9296 10.9043Z" fill="white"/>
</svg>