<svg xmlns="http://www.w3.org/2000/svg" width="1541" height="377" viewBox="0 0 1541 377" fill="none">
<path d="M115.041 -372.848L287.399 -195.678L-58.5377 162.734L-230.896 -14.4368L115.041 -372.848ZM301.313 -170.84C214.105 -79.7926 214.728 67.226 302.673 157.485L307.925 162.803L471.026 -6.14609L306.068 -175.733L302.027 -171.532C301.789 -171.334 301.551 -171.087 301.313 -170.84Z" fill="#4536DA"/>
<path d="M668.485 -162.099L840.843 15.218L494.907 373.926L322.549 196.608L668.485 -162.099ZM854.757 40.0764C767.55 131.199 768.172 278.339 856.118 368.673L861.369 373.996L1024.47 204.907L859.513 35.1788L855.471 39.3837C855.233 39.5817 854.995 39.829 854.757 40.0764Z" fill="#4536DA"/>
<path d="M1229.81 -340.653L1402.17 -163.335L1056.23 195.372L883.873 18.0549L1229.81 -340.653ZM1416.08 -138.477C1328.87 -47.3543 1329.5 99.786 1417.44 190.12L1422.69 195.442L1585.8 26.3536L1420.84 -143.374L1416.8 -139.17C1416.56 -138.972 1416.32 -138.724 1416.08 -138.477Z" fill="#4536DA"/>
</svg>