<svg xmlns="http://www.w3.org/2000/svg" width="49" height="56" viewBox="0 0 49 56" fill="none">
<path fill-rule="evenodd" clip-rule="evenodd" d="M0.76709 11.821L33.4944 11.821L48.7671 25.1759L48.7671 53.821L0.76709 53.821L0.76709 11.821ZM48.7671 11.821L48.7671 22.4795L36.578 11.821L48.7671 11.821ZM16.8107 27.9817L15.2689 26.6335L7.95254 33.031L15.2689 39.4286L16.8107 38.0804L11.0362 33.031L16.8107 27.9817ZM34.2653 26.6335L32.7235 27.9817L38.498 33.031L32.7235 38.0804L34.2653 39.4286L41.5816 33.031L34.2653 26.6335ZM21.441 44.779L30.1683 21.8851L28.098 21.2831L19.3707 44.177L21.441 44.779Z" fill="white"/>
<path fill-rule="evenodd" clip-rule="evenodd" d="M0.76709 11.821L33.4944 11.821L48.7671 25.1759L48.7671 53.821L0.76709 53.821L0.76709 11.821ZM16.8107 27.9817L15.2689 26.6335L7.95254 33.031L15.2689 39.4286L16.8107 38.0804L11.0362 33.031L16.8107 27.9817ZM34.2653 26.6335L32.7235 27.9817L38.498 33.031L32.7235 38.0804L34.2653 39.4286L41.5816 33.031L34.2653 26.6335ZM21.441 44.779L30.1683 21.8851L28.098 21.2831L19.3707 44.177L21.441 44.779Z" fill="white"/>
</svg>