<svg xmlns="http://www.w3.org/2000/svg" width="50" height="58" viewBox="0 0 50 58" fill="none">
<mask id="mask0_493_12801" style="mask-type:alpha" maskUnits="userSpaceOnUse" x="-1" y="-1" width="40" height="45">
<path d="M21.4478 43.0734L21.4478 29.1449L30.08 29.1449L36.4182 18.7136L37.757 0.399536L0.298828 0.399536L0.298828 43.0734L21.4478 43.0734Z" fill="#D9D9D9" stroke="black" stroke-width="1.01745"/>
</mask>
<g mask="url(#mask0_493_12801)">
<path fill-rule="evenodd" clip-rule="evenodd" d="M18.4987 5.59909C18.3745 5.7228 18.2136 6.02245 18.1187 6.30668C17.8942 6.97908 17.7667 7.11475 17.0976 7.39322C15.0643 8.23973 13.7853 9.55141 13.1522 11.4395C12.9424 12.0653 12.9193 12.2311 12.8842 13.3575C12.8631 14.0355 12.873 15.1451 12.9062 15.8231L12.9665 17.0559L12.5977 17.2985C12.3792 17.4423 12.1379 17.689 12.0055 17.9042C11.8054 18.2292 11.782 18.3296 11.782 18.8632C11.782 19.3767 11.8137 19.5254 12.0109 19.9386C12.3892 20.7311 13.6555 22.5305 15.0738 24.291C16.3772 25.9089 16.4099 25.958 16.3709 26.2342C16.3106 26.6611 16.0873 27.0371 15.6737 27.4076C14.9876 28.0223 14.1502 28.3542 10.2274 29.5666C7.28537 30.4759 5.53303 31.3755 4.20643 32.6577C2.90759 33.913 2.20647 35.4451 2.07447 37.3162L2.02539 38.0121L13.1406 38.0121C19.2541 38.0121 31.2338 38.015 31.2338 37.999C31.2338 37.9829 30.1728 37.2713 30.0497 36.9829C29.7609 36.3067 28.6799 35.8002 28.5826 35.0094C28.2918 32.6469 27.4826 34.1545 28.9253 32.2464L30.4444 30.2729L25.4405 27.3156C25.165 27.0592 24.926 26.5507 24.9238 26.2165C24.9226 26.0251 25.0038 25.8679 25.2667 25.5525C27.52 22.8502 29.1491 20.4468 29.4688 19.3535C29.626 18.8162 29.6186 18.2643 29.45 17.9457C29.365 17.7849 29.1684 17.6058 28.9253 17.4674L28.5367 17.2461L28.5826 14.9592C28.6317 12.51 28.5914 12.0346 28.2593 11.1538C27.9079 10.2218 27.1379 9.19319 26.2668 8.49209C24.2269 6.85043 21.336 5.56279 19.3936 5.43074C18.7157 5.38464 18.7135 5.38508 18.4987 5.59909Z" fill="currentColor"/>
</g>
<rect x="24.9547" y="32.6518" width="15.7428" height="15.7428" stroke="white" stroke-width="2.69758"/>
<mask id="path-4-inside-1_493_12801" fill="currentColor">
<path d="M28.5234 38.6791L34.6702 38.6791L34.6702 44.8259L28.5234 44.8259L28.5234 38.6791Z"/>
</mask>
<path d="M28.5234 44.8259L26.5234 44.8259L26.5234 46.8259L28.5234 46.8259L28.5234 44.8259ZM34.6702 42.8259L28.5234 42.8259L28.5234 46.8259L34.6702 46.8259L34.6702 42.8259ZM30.5234 44.8259L30.5234 38.6791L26.5234 38.6791L26.5234 44.8259L30.5234 44.8259Z" fill="white" mask="url(#path-4-inside-1_493_12801)"/>
<rect x="39.2876" y="48.7875" width="2.54876" height="11.8973" transform="rotate(-45 39.2876 48.7875)" fill="currentColor"/>
</svg>