<svg xmlns="http://www.w3.org/2000/svg" width="18" height="27" viewBox="0 0 18 27" fill="none">
<path d="M14.1583 22.1265L13.4631 22.8453L14.1583 22.1265ZM16.1484 24.7246L17.1228 24.9492L16.1484 24.7246ZM16.0305 25.016L15.1739 24.5L16.0305 25.016ZM16.1484 2.2754L17.1228 2.0508L16.1484 2.2754ZM16.0305 1.98399L16.8871 1.46798L16.0305 1.98399ZM11.5 13.5C11.5 10.3959 12.7845 7.59348 14.8535 5.59231L13.4631 4.1547C11.0206 6.51709 9.5 9.83184 9.5 13.5H11.5ZM14.8535 21.4077C12.7845 19.4065 11.5 16.6041 11.5 13.5H9.5C9.5 17.1682 11.0206 20.4829 13.4631 22.8453L14.8535 21.4077ZM13.5 24.5C7.42487 24.5 2.5 19.5751 2.5 13.5H0.5C0.5 20.6797 6.3203 26.5 13.5 26.5V24.5ZM2.5 13.5C2.5 7.42487 7.42487 2.5 13.5 2.5V0.5C6.3203 0.5 0.5 6.3203 0.5 13.5H2.5ZM13.4631 22.8453C14.1881 23.5465 14.6659 24.0109 14.9576 24.3658C15.2942 24.7755 15.1195 24.7364 15.1739 24.5L17.1228 24.9492C17.3042 24.1623 16.8401 23.5066 16.5028 23.0961C16.1205 22.6308 15.5398 22.0715 14.8535 21.4077L13.4631 22.8453ZM13.5 26.5C14.2129 26.5 14.8617 26.5026 15.3618 26.4288C15.8729 26.3533 16.5085 26.1606 16.8871 25.532L15.1739 24.5C15.261 24.3554 15.3777 24.4047 15.0696 24.4502C14.7505 24.4974 14.2798 24.5 13.5 24.5V26.5ZM15.1739 24.5L16.8871 25.532C16.9959 25.3514 17.0755 25.1547 17.1228 24.9492L15.1739 24.5ZM14.8535 5.59231C15.5398 4.92852 16.1205 4.36918 16.5028 3.90392C16.8401 3.49343 17.3042 2.83774 17.1228 2.0508L15.1739 2.5C15.1195 2.26365 15.2942 2.2245 14.9576 2.63417C14.6659 2.98906 14.1881 3.45348 13.4631 4.1547L14.8535 5.59231ZM13.5 2.5C14.2798 2.5 14.7505 2.50264 15.0696 2.54977C15.3777 2.59528 15.261 2.64457 15.1739 2.5L16.8871 1.46798C16.5085 0.83942 15.8729 0.646717 15.3618 0.571231C14.8617 0.497365 14.2129 0.5 13.5 0.5V2.5ZM17.1228 2.0508C17.0755 1.84534 16.9959 1.64859 16.8871 1.46798L15.1739 2.5L17.1228 2.0508Z" fill="#333333"/>
</svg>