<svg xmlns="http://www.w3.org/2000/svg" width="74" height="22" viewBox="0 0 74 22" fill="none">
<path d="M0 0.23938L74 0.23938L74 11.2394C74 16.7622 69.5229 21.2394 64 21.2394L-2.45913e-09 21.2394L0 0.23938Z" fill="#FC8686"/>
<path d="M32.984 13.7394L34.604 13.7394L34.604 10.5594L36.944 10.5594C37.544 10.5594 37.724 10.7394 37.724 11.3394L37.724 13.7394L39.344 13.7394L39.344 10.9314C39.344 10.1754 38.948 9.74338 38.036 9.74338C38.996 9.38338 39.464 8.68738 39.464 7.61938C39.464 6.29938 38.324 5.33938 36.884 5.33938L32.984 5.33938L32.984 13.7394ZM34.604 9.14338L34.604 6.77938L36.404 6.77938C37.364 6.77938 37.844 7.15138 37.844 7.93138C37.844 8.71138 37.364 9.14338 36.404 9.14338L34.604 9.14338ZM41.1754 13.7394L47.6554 13.7394L47.6554 12.2994L42.7954 12.2994L42.7954 10.1514L46.8154 10.1514L46.8154 8.71138L42.7954 8.71138L42.7954 6.77938L47.5354 6.77938L47.5354 5.33938L41.1754 5.33938L41.1754 13.7394ZM48.149 13.7394L49.853 13.7394L50.609 11.7594L54.137 11.7594L54.893 13.7394L56.609 13.7394L53.369 5.33938L51.473 5.33938L48.149 13.7394ZM51.161 10.3194L52.373 7.13938L53.585 10.3194L51.161 10.3194ZM57.6637 13.7394L60.6037 13.7394C63.1237 13.7394 64.8037 12.2994 64.8037 9.53938C64.8037 6.77938 63.0637 5.33938 60.5437 5.33938L57.6637 5.33938L57.6637 13.7394ZM59.2837 12.2994L59.2837 6.77938L60.4237 6.77938C62.0437 6.77938 63.1837 7.43938 63.1837 9.53938C63.1837 11.6394 62.0437 12.2994 60.4237 12.2994L59.2837 12.2994Z" fill="#36241F"/>
</svg>