<svg xmlns="http://www.w3.org/2000/svg" width="45" height="43" viewBox="0 0 45 43" fill="none">
<mask id="mask0_428_14178" style="mask-type:alpha" maskUnits="userSpaceOnUse" x="0" y="0" width="35" height="40">
<path d="M21.6815 33.002L26.362 28.3215L28.4895 26.194L33.1168 17.0988L34.3182 0.66394L0.703613 0.66394L0.703613 38.959L27.6385 38.959L21.6815 33.002Z" fill="#D9D9D9" stroke="black" stroke-width="0.913048"/>
</mask>
<g mask="url(#mask0_428_14178)">
<path fill-rule="evenodd" clip-rule="evenodd" d="M19.7384 2.57397C19.6046 2.70733 19.4311 3.03036 19.3288 3.33676C19.0867 4.06162 18.9493 4.20787 18.228 4.50807C16.0361 5.42061 14.6573 6.83463 13.9749 8.86997C13.7487 9.54465 13.7237 9.72334 13.6859 10.9376C13.6632 11.6686 13.6739 12.8647 13.7096 13.5956L13.7746 14.9245L13.3771 15.1861C13.1415 15.3411 12.8814 15.6071 12.7386 15.8391C12.523 16.1894 12.4978 16.2976 12.4978 16.8729C12.4978 17.4264 12.5319 17.5868 12.7445 18.0322C13.1523 18.8864 14.5174 20.8263 16.0464 22.7241C17.4514 24.4682 17.4867 24.5211 17.4446 24.8189C17.3796 25.2791 17.1389 25.6844 16.693 26.0838C15.9535 26.7464 15.0507 27.1043 10.8219 28.4113C7.65031 29.3915 5.76126 30.3613 4.33117 31.7435C2.93101 33.0967 2.17518 34.7484 2.03289 36.7654L1.97998 37.5156L13.9623 37.5156C20.5527 37.5156 33.467 37.5188 33.467 37.5015C33.467 37.4842 32.3233 36.717 32.1905 36.4062C31.8792 35.6772 30.7139 35.1312 30.6089 34.2787C30.2956 31.7319 29.4231 33.3571 30.9784 31.3001L32.616 29.1726L27.2217 25.9847C26.9248 25.7082 26.6671 25.1601 26.6648 24.7998C26.6634 24.5935 26.751 24.424 27.0344 24.084C29.4635 21.1708 31.2197 18.58 31.5644 17.4014C31.7338 16.8222 31.7258 16.2272 31.5441 15.8838C31.4524 15.7105 31.2405 15.5173 30.9784 15.3681L30.5595 15.1295L30.6089 12.6643C30.6619 10.024 30.6184 9.51149 30.2604 8.56197C29.8816 7.55727 29.0516 6.44846 28.1125 5.69266C25.9135 3.92293 22.7971 2.53484 20.7032 2.39249C19.9724 2.34279 19.9699 2.34327 19.7384 2.57397Z" fill="white"/>
</g>
<path fill-rule="evenodd" clip-rule="evenodd" d="M34.4907 23.4901L44.0776 33.077L34.4907 42.6639L24.9038 33.077L34.4907 23.4901ZM35.5562 32.0121L38.7512 32.0121L38.7512 34.1425L35.5562 34.1425L35.5562 37.3388L33.4258 37.3388L33.4258 34.1425L30.2297 34.1425L30.2297 32.0121L33.4258 32.0121L33.4258 28.8173L35.5562 28.8173L35.5562 32.0121Z" fill="white"/>
</svg>