<svg xmlns="http://www.w3.org/2000/svg" width="248" height="37" viewBox="0 0 248 37" fill="none">
<rect x="0.5" y="0.5" width="247" height="36" rx="9.5" fill="#333333"/>
<g clip-path="url(#clip0_417_12204)">
<path d="M27.5 20.5L26.71 20.5L26.43 20.23C27.41 19.09 28 17.61 28 16C28 12.41 25.09 9.5 21.5 9.5C17.91 9.5 15 12.41 15 16C15 19.59 17.91 22.5 21.5 22.5C23.11 22.5 24.59 21.91 25.73 20.93L26 21.21L26 22L31 26.99L32.49 25.5L27.5 20.5ZM21.5 20.5C19.01 20.5 17 18.49 17 16C17 13.51 19.01 11.5 21.5 11.5C23.99 11.5 26 13.51 26 16C26 18.49 23.99 20.5 21.5 20.5Z" fill="#999999"/>
</g>
<path d="M50.992 22.66C53.392 22.66 54.896 21.444 54.896 19.476C54.896 17.796 53.84 16.852 52 16.484L50.208 16.132C49.072 15.908 48.352 15.332 48.352 14.324C48.352 13.108 49.44 12.18 50.992 12.18L51.152 12.18C52.704 12.18 53.856 13.108 53.952 14.58L55.072 14.58C54.992 12.468 53.472 11.14 51.072 11.14C48.688 11.14 47.232 12.58 47.232 14.34C47.232 15.988 48.208 16.9 49.904 17.252L51.696 17.62C53.104 17.908 53.776 18.5 53.776 19.54C53.776 20.692 52.848 21.62 51.136 21.62L50.976 21.62C49.104 21.62 47.792 20.676 47.792 18.98L46.672 18.98C46.672 21.316 48.272 22.66 50.992 22.66ZM60.2586 22.66C61.8906 22.66 63.1226 21.812 63.4746 20.212L62.4346 20.212C62.1306 21.284 61.4266 21.78 60.3386 21.78L60.2426 21.78C58.9306 21.78 57.7626 20.836 57.7306 18.58L63.4906 18.58L63.4906 17.94C63.4906 15.892 62.2106 14.34 60.2586 14.34C58.4186 14.34 56.6906 15.684 56.6906 18.484C56.6906 21.22 58.2586 22.66 60.2586 22.66ZM57.7626 17.7C57.9866 15.796 59.1546 15.22 60.1626 15.22L60.3226 15.22C61.5866 15.22 62.4026 16.276 62.4506 17.7L57.7626 17.7ZM67.6565 22.66C69.0645 22.66 70.1685 21.956 70.4885 21.22C70.4885 21.652 70.5045 22.148 70.5685 22.5L71.5285 22.5C71.4485 21.94 71.4485 21.22 71.4485 20.74L71.4485 17.38C71.4485 15.748 70.4405 14.34 68.3605 14.34C66.6485 14.34 65.3845 15.316 65.2885 16.74L66.3285 16.74C66.4405 15.732 67.3045 15.22 68.3285 15.22L68.4085 15.22C69.6405 15.22 70.4085 16.004 70.4085 17.38L70.4085 17.7L67.8805 17.892C66.6485 17.988 65.1285 18.532 65.1285 20.292C65.1285 21.652 66.2485 22.66 67.6565 22.66ZM66.1685 20.228C66.1685 19.348 66.9525 18.788 68.0885 18.708L70.4085 18.548L70.4085 19.62C70.4085 20.804 69.0325 21.78 67.9285 21.78L67.7685 21.78C66.8565 21.78 66.1685 21.108 66.1685 20.228ZM73.9363 22.5L74.9763 22.5L74.9763 18.612C74.9763 16.596 75.9203 15.38 77.4563 15.38L78.0963 15.38L78.0963 14.42L77.3763 14.42C76.2723 14.42 75.2643 15.044 74.8963 16.324L74.8963 14.5L73.9363 14.5L73.9363 22.5ZM82.48 22.66C84.208 22.66 85.312 21.588 85.6 19.94L84.56 19.94C84.352 20.964 83.632 21.78 82.56 21.78L82.4 21.78C80.656 21.78 79.84 20.244 79.84 18.5C79.84 16.756 80.656 15.22 82.4 15.22L82.56 15.22C83.632 15.22 84.384 15.988 84.56 17.06L85.6 17.06C85.44 15.38 84.208 14.34 82.48 14.34C80.112 14.34 78.8 16.148 78.8 18.5C78.8 20.852 80.112 22.66 82.48 22.66ZM87.6238 22.5L88.6638 22.5L88.6638 18.18C88.6638 16.324 89.9118 15.22 91.1438 15.22L91.3038 15.22C92.5838 15.22 93.2238 16.004 93.2238 17.54L93.2238 22.5L94.2638 22.5L94.2638 17.22C94.2638 15.54 93.3198 14.34 91.5438 14.34C90.1998 14.34 89.2078 14.916 88.6638 15.86L88.6638 11.3L87.6238 11.3L87.6238 22.5Z" fill="#999999"/>
<rect x="0.5" y="0.5" width="247" height="36" rx="9.5" stroke="#666666"/>
<defs>
<clipPath id="clip0_417_12204">
<rect width="24" height="24" fill="white" transform="translate(12 6.5)"/>
</clipPath>
</defs>
</svg>