<svg xmlns="http://www.w3.org/2000/svg" width="75" height="22" viewBox="0 0 75 22" fill="none">
<path d="M0.5 0.424316L74.5 0.424316L74.5 11.4243C74.5 16.9472 70.0229 21.4243 64.5 21.4243L0.5 21.4243L0.5 0.424316Z" fill="#4082C7"/>
<path d="M24.268 14.0443C26.344 14.0443 27.496 12.9043 27.496 11.4643C27.496 10.0963 26.608 9.35232 25.168 9.06432L23.908 8.81232C23.188 8.66832 22.888 8.41632 22.888 7.86432C22.888 7.32432 23.428 6.84432 24.328 6.84432L24.448 6.84432C25.312 6.84432 25.948 7.28832 26.008 8.16432L27.628 8.16432C27.628 6.56832 26.488 5.40432 24.448 5.40432C22.384 5.40432 21.268 6.66432 21.268 7.92432C21.268 9.17232 21.928 10.0363 23.428 10.3483L24.928 10.6603C25.672 10.8163 25.876 11.1043 25.876 11.5843C25.876 12.1243 25.408 12.6043 24.508 12.6043L24.388 12.6043C23.128 12.6043 22.528 11.9443 22.468 11.1043L20.848 11.1043C20.908 12.8443 21.964 14.0443 24.268 14.0443ZM32.7015 14.0443C35.1015 14.0443 36.7815 12.4243 36.7815 9.72432C36.7815 7.02432 35.1015 5.40432 32.7015 5.40432C30.3015 5.40432 28.6215 7.02432 28.6215 9.72432C28.6215 12.4243 30.3015 14.0443 32.7015 14.0443ZM30.2415 9.72432C30.2415 7.92432 31.1415 6.84432 32.6415 6.84432L32.7615 6.84432C34.2615 6.84432 35.1615 7.92432 35.1615 9.72432C35.1615 11.5243 34.2615 12.6043 32.7615 12.6043L32.6415 12.6043C31.1415 12.6043 30.2415 11.5243 30.2415 9.72432ZM41.841 14.0443C44.061 14.0443 45.249 12.8083 45.369 11.1643L43.749 11.1643C43.569 12.1003 42.921 12.6043 41.901 12.6043L41.781 12.6043C40.401 12.6043 39.441 11.5243 39.441 9.72432C39.441 7.92432 40.401 6.84432 41.781 6.84432L41.901 6.84432C42.921 6.84432 43.569 7.37232 43.749 8.28432L45.369 8.28432C45.249 6.70032 44.061 5.40432 41.841 5.40432C39.261 5.40432 37.821 7.14432 37.821 9.72432C37.821 12.3043 39.261 14.0443 41.841 14.0443ZM46.8082 13.9243L48.4282 13.9243L48.4282 5.52432L46.8082 5.52432L46.8082 13.9243ZM49.4342 13.9243L51.1382 13.9243L51.8942 11.9443L55.4222 11.9443L56.1782 13.9243L57.8942 13.9243L54.6542 5.52432L52.7582 5.52432L49.4342 13.9243ZM52.4462 10.5043L53.6582 7.32432L54.8702 10.5043L52.4462 10.5043ZM58.9488 13.9243L65.3088 13.9243L65.3088 12.4843L60.5688 12.4843L60.5688 5.52432L58.9488 5.52432L58.9488 13.9243Z" fill="white"/>
</svg>