<svg xmlns="http://www.w3.org/2000/svg" width="75" height="22" viewBox="0 0 75 22" fill="none">
<path d="M0.666504 0.23938L74.6665 0.23938L74.6665 11.2394C74.6665 16.7622 70.1894 21.2394 64.6665 21.2394L0.666504 21.2394L0.666504 0.23938Z" fill="#B5B0F0"/>
<path d="M46.8785 13.8594C49.1585 13.8594 50.1785 12.7194 50.1785 10.7994L50.1785 5.33938L48.5585 5.33938L48.5585 10.5594C48.5585 11.8794 48.0185 12.4194 46.9385 12.4194L46.8185 12.4194C45.7385 12.4194 45.1985 11.8794 45.1985 10.5594L45.1985 5.33938L43.5785 5.33938L43.5785 10.7994C43.5785 12.7194 44.5985 13.8594 46.8785 13.8594ZM54.8603 13.8594C56.9363 13.8594 58.0883 12.7194 58.0883 11.2794C58.0883 9.91138 57.2003 9.16738 55.7603 8.87938L54.5003 8.62738C53.7803 8.48338 53.4803 8.23138 53.4803 7.67938C53.4803 7.13938 54.0203 6.65938 54.9203 6.65938L55.0403 6.65938C55.9043 6.65938 56.5403 7.10338 56.6003 7.97938L58.2203 7.97938C58.2203 6.38338 57.0803 5.21938 55.0403 5.21938C52.9763 5.21938 51.8603 6.47938 51.8603 7.73938C51.8603 8.98738 52.5203 9.85138 54.0203 10.1634L55.5203 10.4754C56.2643 10.6314 56.4683 10.9194 56.4683 11.3994C56.4683 11.9394 56.0003 12.4194 55.1003 12.4194L54.9803 12.4194C53.7203 12.4194 53.1203 11.7594 53.0603 10.9194L51.4403 10.9194C51.5003 12.6594 52.5563 13.8594 54.8603 13.8594ZM59.6818 13.7394L66.1618 13.7394L66.1618 12.2994L61.3018 12.2994L61.3018 10.1514L65.3218 10.1514L65.3218 8.71138L61.3018 8.71138L61.3018 6.77938L66.0418 6.77938L66.0418 5.33938L59.6818 5.33938L59.6818 13.7394Z" fill="white"/>
</svg>